<mxfile host="app.diagrams.net" agent="Mozilla/5.0 (Windows NT 10.0; Win64; x64) AppleWebKit/537.36 (KHTML, like Gecko) Chrome/134.0.0.0 Safari/537.36 OPR/119.0.0.0" version="27.1.6">
  <diagram name="Page-1" id="HEZwpCtdEQwHtODrXpG3">
    <mxGraphModel dx="1039" dy="1057" grid="0" gridSize="10" guides="1" tooltips="1" connect="1" arrows="1" fold="1" page="0" pageScale="1" pageWidth="850" pageHeight="1100" math="0" shadow="0">
      <root>
        <mxCell id="0" />
        <mxCell id="1" parent="0" />
        <mxCell id="6Avd4ofSIsM17FUyCCIW-1" value="user" style="rounded=0;whiteSpace=wrap;html=1;" vertex="1" parent="1">
          <mxGeometry x="-58" y="-73" width="120" height="60" as="geometry" />
        </mxCell>
        <mxCell id="6Avd4ofSIsM17FUyCCIW-2" value="Account" style="rounded=0;whiteSpace=wrap;html=1;" vertex="1" parent="1">
          <mxGeometry x="291" y="-79" width="120" height="60" as="geometry" />
        </mxCell>
        <mxCell id="6Avd4ofSIsM17FUyCCIW-3" value="Transaction" style="rounded=0;whiteSpace=wrap;html=1;" vertex="1" parent="1">
          <mxGeometry x="-48" y="190" width="120" height="60" as="geometry" />
        </mxCell>
        <mxCell id="6Avd4ofSIsM17FUyCCIW-4" value="Authentication&lt;div&gt;services&lt;/div&gt;" style="rounded=0;whiteSpace=wrap;html=1;" vertex="1" parent="1">
          <mxGeometry x="304" y="186" width="120" height="60" as="geometry" />
        </mxCell>
        <mxCell id="6Avd4ofSIsM17FUyCCIW-6" value="1 User and Account" style="endArrow=none;html=1;rounded=0;fontSize=12;startSize=8;endSize=8;curved=1;exitX=1;exitY=0.5;exitDx=0;exitDy=0;entryX=0;entryY=0.5;entryDx=0;entryDy=0;" edge="1" parent="1" source="6Avd4ofSIsM17FUyCCIW-1" target="6Avd4ofSIsM17FUyCCIW-2">
          <mxGeometry width="50" height="50" relative="1" as="geometry">
            <mxPoint x="174" y="222" as="sourcePoint" />
            <mxPoint x="224" y="172" as="targetPoint" />
          </mxGeometry>
        </mxCell>
        <mxCell id="6Avd4ofSIsM17FUyCCIW-7" value="" style="endArrow=none;html=1;rounded=0;fontSize=12;startSize=8;endSize=8;curved=1;exitX=0.5;exitY=0;exitDx=0;exitDy=0;entryX=0.5;entryY=1;entryDx=0;entryDy=0;" edge="1" parent="1" source="6Avd4ofSIsM17FUyCCIW-3" target="6Avd4ofSIsM17FUyCCIW-1">
          <mxGeometry width="50" height="50" relative="1" as="geometry">
            <mxPoint x="174" y="222" as="sourcePoint" />
            <mxPoint x="224" y="172" as="targetPoint" />
          </mxGeometry>
        </mxCell>
        <mxCell id="6Avd4ofSIsM17FUyCCIW-29" style="edgeStyle=none;curved=1;rounded=0;orthogonalLoop=1;jettySize=auto;html=1;exitX=0.5;exitY=1;exitDx=0;exitDy=0;entryX=0.5;entryY=0;entryDx=0;entryDy=0;fontSize=12;startSize=8;endSize=8;" edge="1" parent="1" source="6Avd4ofSIsM17FUyCCIW-11" target="6Avd4ofSIsM17FUyCCIW-1">
          <mxGeometry relative="1" as="geometry" />
        </mxCell>
        <mxCell id="6Avd4ofSIsM17FUyCCIW-11" value="Username" style="ellipse;whiteSpace=wrap;html=1;align=center;" vertex="1" parent="1">
          <mxGeometry x="-87" y="-260" width="100" height="40" as="geometry" />
        </mxCell>
        <mxCell id="6Avd4ofSIsM17FUyCCIW-28" style="edgeStyle=none;curved=1;rounded=0;orthogonalLoop=1;jettySize=auto;html=1;exitX=0;exitY=1;exitDx=0;exitDy=0;entryX=0.75;entryY=0;entryDx=0;entryDy=0;fontSize=12;startSize=8;endSize=8;" edge="1" parent="1" source="6Avd4ofSIsM17FUyCCIW-12" target="6Avd4ofSIsM17FUyCCIW-1">
          <mxGeometry relative="1" as="geometry" />
        </mxCell>
        <mxCell id="6Avd4ofSIsM17FUyCCIW-12" value="Password" style="ellipse;whiteSpace=wrap;html=1;align=center;" vertex="1" parent="1">
          <mxGeometry x="35" y="-233" width="100" height="40" as="geometry" />
        </mxCell>
        <mxCell id="6Avd4ofSIsM17FUyCCIW-30" style="edgeStyle=none;curved=1;rounded=0;orthogonalLoop=1;jettySize=auto;html=1;exitX=0.5;exitY=1;exitDx=0;exitDy=0;fontSize=12;startSize=8;endSize=8;" edge="1" parent="1" source="6Avd4ofSIsM17FUyCCIW-14" target="6Avd4ofSIsM17FUyCCIW-1">
          <mxGeometry relative="1" as="geometry" />
        </mxCell>
        <mxCell id="6Avd4ofSIsM17FUyCCIW-14" value="User Id" style="ellipse;whiteSpace=wrap;html=1;align=center;" vertex="1" parent="1">
          <mxGeometry x="-143" y="-189" width="100" height="40" as="geometry" />
        </mxCell>
        <mxCell id="6Avd4ofSIsM17FUyCCIW-15" value="mfa Enabled" style="ellipse;whiteSpace=wrap;html=1;align=center;" vertex="1" parent="1">
          <mxGeometry x="62" y="-147" width="100" height="47" as="geometry" />
        </mxCell>
        <mxCell id="6Avd4ofSIsM17FUyCCIW-31" style="edgeStyle=none;curved=1;rounded=0;orthogonalLoop=1;jettySize=auto;html=1;exitX=1;exitY=0.5;exitDx=0;exitDy=0;entryX=0;entryY=0.25;entryDx=0;entryDy=0;fontSize=12;startSize=8;endSize=8;" edge="1" parent="1" source="6Avd4ofSIsM17FUyCCIW-16" target="6Avd4ofSIsM17FUyCCIW-1">
          <mxGeometry relative="1" as="geometry" />
        </mxCell>
        <mxCell id="6Avd4ofSIsM17FUyCCIW-16" value="methods(login or Log out)" style="ellipse;whiteSpace=wrap;html=1;align=center;" vertex="1" parent="1">
          <mxGeometry x="-191" y="-100" width="100" height="40" as="geometry" />
        </mxCell>
        <mxCell id="6Avd4ofSIsM17FUyCCIW-26" style="edgeStyle=none;curved=1;rounded=0;orthogonalLoop=1;jettySize=auto;html=1;exitX=0.5;exitY=1;exitDx=0;exitDy=0;entryX=0;entryY=0;entryDx=0;entryDy=0;fontSize=12;startSize=8;endSize=8;" edge="1" parent="1" source="6Avd4ofSIsM17FUyCCIW-17" target="6Avd4ofSIsM17FUyCCIW-2">
          <mxGeometry relative="1" as="geometry" />
        </mxCell>
        <mxCell id="6Avd4ofSIsM17FUyCCIW-17" value="Account" style="ellipse;whiteSpace=wrap;html=1;align=center;" vertex="1" parent="1">
          <mxGeometry x="257" y="-240" width="112" height="47" as="geometry" />
        </mxCell>
        <mxCell id="6Avd4ofSIsM17FUyCCIW-18" value="Balance" style="ellipse;whiteSpace=wrap;html=1;align=center;" vertex="1" parent="1">
          <mxGeometry x="380" y="-234" width="100" height="51" as="geometry" />
        </mxCell>
        <mxCell id="6Avd4ofSIsM17FUyCCIW-25" style="edgeStyle=none;curved=1;rounded=0;orthogonalLoop=1;jettySize=auto;html=1;exitX=0;exitY=1;exitDx=0;exitDy=0;entryX=0.75;entryY=0;entryDx=0;entryDy=0;fontSize=12;startSize=8;endSize=8;" edge="1" parent="1" source="6Avd4ofSIsM17FUyCCIW-19" target="6Avd4ofSIsM17FUyCCIW-2">
          <mxGeometry relative="1" as="geometry" />
        </mxCell>
        <mxCell id="6Avd4ofSIsM17FUyCCIW-19" value="Account types" style="ellipse;whiteSpace=wrap;html=1;align=center;" vertex="1" parent="1">
          <mxGeometry x="461" y="-183" width="100" height="51" as="geometry" />
        </mxCell>
        <mxCell id="6Avd4ofSIsM17FUyCCIW-22" style="edgeStyle=none;curved=1;rounded=0;orthogonalLoop=1;jettySize=auto;html=1;exitX=0;exitY=1;exitDx=0;exitDy=0;fontSize=12;startSize=8;endSize=8;" edge="1" parent="1" source="6Avd4ofSIsM17FUyCCIW-20" target="6Avd4ofSIsM17FUyCCIW-2">
          <mxGeometry relative="1" as="geometry" />
        </mxCell>
        <mxCell id="6Avd4ofSIsM17FUyCCIW-20" value="Deposit()" style="ellipse;whiteSpace=wrap;html=1;align=center;" vertex="1" parent="1">
          <mxGeometry x="498" y="-117" width="100" height="40" as="geometry" />
        </mxCell>
        <mxCell id="6Avd4ofSIsM17FUyCCIW-23" style="edgeStyle=none;curved=1;rounded=0;orthogonalLoop=1;jettySize=auto;html=1;exitX=0;exitY=0.5;exitDx=0;exitDy=0;entryX=1;entryY=1;entryDx=0;entryDy=0;fontSize=12;startSize=8;endSize=8;" edge="1" parent="1" source="6Avd4ofSIsM17FUyCCIW-21" target="6Avd4ofSIsM17FUyCCIW-2">
          <mxGeometry relative="1" as="geometry" />
        </mxCell>
        <mxCell id="6Avd4ofSIsM17FUyCCIW-21" value="Withdraw" style="ellipse;whiteSpace=wrap;html=1;align=center;" vertex="1" parent="1">
          <mxGeometry x="470" y="-11" width="100" height="40" as="geometry" />
        </mxCell>
        <mxCell id="6Avd4ofSIsM17FUyCCIW-24" style="edgeStyle=none;curved=1;rounded=0;orthogonalLoop=1;jettySize=auto;html=1;exitX=0.5;exitY=1;exitDx=0;exitDy=0;entryX=0.357;entryY=0.023;entryDx=0;entryDy=0;entryPerimeter=0;fontSize=12;startSize=8;endSize=8;" edge="1" parent="1" source="6Avd4ofSIsM17FUyCCIW-18" target="6Avd4ofSIsM17FUyCCIW-2">
          <mxGeometry relative="1" as="geometry" />
        </mxCell>
        <mxCell id="6Avd4ofSIsM17FUyCCIW-27" style="edgeStyle=none;curved=1;rounded=0;orthogonalLoop=1;jettySize=auto;html=1;exitX=0;exitY=1;exitDx=0;exitDy=0;entryX=0.901;entryY=-0.023;entryDx=0;entryDy=0;entryPerimeter=0;fontSize=12;startSize=8;endSize=8;" edge="1" parent="1" source="6Avd4ofSIsM17FUyCCIW-15" target="6Avd4ofSIsM17FUyCCIW-1">
          <mxGeometry relative="1" as="geometry" />
        </mxCell>
        <mxCell id="6Avd4ofSIsM17FUyCCIW-36" style="edgeStyle=none;curved=1;rounded=0;orthogonalLoop=1;jettySize=auto;html=1;exitX=0.5;exitY=0;exitDx=0;exitDy=0;entryX=0;entryY=0.75;entryDx=0;entryDy=0;fontSize=12;startSize=8;endSize=8;" edge="1" parent="1" source="6Avd4ofSIsM17FUyCCIW-32" target="6Avd4ofSIsM17FUyCCIW-3">
          <mxGeometry relative="1" as="geometry" />
        </mxCell>
        <mxCell id="6Avd4ofSIsM17FUyCCIW-32" value="TransctionId" style="ellipse;whiteSpace=wrap;html=1;align=center;" vertex="1" parent="1">
          <mxGeometry x="-164" y="296" width="100" height="40" as="geometry" />
        </mxCell>
        <mxCell id="6Avd4ofSIsM17FUyCCIW-35" style="edgeStyle=none;curved=1;rounded=0;orthogonalLoop=1;jettySize=auto;html=1;exitX=0.5;exitY=0;exitDx=0;exitDy=0;entryX=0.25;entryY=1;entryDx=0;entryDy=0;fontSize=12;startSize=8;endSize=8;" edge="1" parent="1" source="6Avd4ofSIsM17FUyCCIW-33" target="6Avd4ofSIsM17FUyCCIW-3">
          <mxGeometry relative="1" as="geometry" />
        </mxCell>
        <mxCell id="6Avd4ofSIsM17FUyCCIW-33" value="Amount" style="ellipse;whiteSpace=wrap;html=1;align=center;" vertex="1" parent="1">
          <mxGeometry x="-87" y="343" width="100" height="40" as="geometry" />
        </mxCell>
        <mxCell id="6Avd4ofSIsM17FUyCCIW-37" style="edgeStyle=none;curved=1;rounded=0;orthogonalLoop=1;jettySize=auto;html=1;exitX=0;exitY=0;exitDx=0;exitDy=0;fontSize=12;startSize=8;endSize=8;" edge="1" parent="1" source="6Avd4ofSIsM17FUyCCIW-34">
          <mxGeometry relative="1" as="geometry">
            <mxPoint x="21.28572300502242" y="253.1429443359375" as="targetPoint" />
          </mxGeometry>
        </mxCell>
        <mxCell id="6Avd4ofSIsM17FUyCCIW-34" value="Data" style="ellipse;whiteSpace=wrap;html=1;align=center;" vertex="1" parent="1">
          <mxGeometry x="28" y="336" width="100" height="40" as="geometry" />
        </mxCell>
        <mxCell id="6Avd4ofSIsM17FUyCCIW-39" style="edgeStyle=none;curved=1;rounded=0;orthogonalLoop=1;jettySize=auto;html=1;exitX=0;exitY=0;exitDx=0;exitDy=0;entryX=1;entryY=0.75;entryDx=0;entryDy=0;fontSize=12;startSize=8;endSize=8;" edge="1" parent="1" source="6Avd4ofSIsM17FUyCCIW-38" target="6Avd4ofSIsM17FUyCCIW-3">
          <mxGeometry relative="1" as="geometry" />
        </mxCell>
        <mxCell id="6Avd4ofSIsM17FUyCCIW-38" value="Types" style="ellipse;whiteSpace=wrap;html=1;align=center;" vertex="1" parent="1">
          <mxGeometry x="101" y="289" width="100" height="40" as="geometry" />
        </mxCell>
        <mxCell id="6Avd4ofSIsM17FUyCCIW-46" style="edgeStyle=none;curved=1;rounded=0;orthogonalLoop=1;jettySize=auto;html=1;exitX=0;exitY=0.5;exitDx=0;exitDy=0;fontSize=12;startSize=8;endSize=8;" edge="1" parent="1" source="6Avd4ofSIsM17FUyCCIW-40" target="6Avd4ofSIsM17FUyCCIW-3">
          <mxGeometry relative="1" as="geometry" />
        </mxCell>
        <mxCell id="6Avd4ofSIsM17FUyCCIW-40" value="Record Tranction" style="ellipse;whiteSpace=wrap;html=1;align=center;" vertex="1" parent="1">
          <mxGeometry x="159" y="178" width="100" height="40" as="geometry" />
        </mxCell>
        <mxCell id="6Avd4ofSIsM17FUyCCIW-50" style="edgeStyle=none;curved=1;rounded=0;orthogonalLoop=1;jettySize=auto;html=1;exitX=0.5;exitY=0;exitDx=0;exitDy=0;entryX=0.25;entryY=1;entryDx=0;entryDy=0;fontSize=12;startSize=8;endSize=8;" edge="1" parent="1" source="6Avd4ofSIsM17FUyCCIW-47" target="6Avd4ofSIsM17FUyCCIW-4">
          <mxGeometry relative="1" as="geometry" />
        </mxCell>
        <mxCell id="6Avd4ofSIsM17FUyCCIW-47" value="Serviceid" style="ellipse;whiteSpace=wrap;html=1;align=center;" vertex="1" parent="1">
          <mxGeometry x="269" y="329" width="100" height="40" as="geometry" />
        </mxCell>
        <mxCell id="6Avd4ofSIsM17FUyCCIW-48" value="Verify MFA()" style="ellipse;whiteSpace=wrap;html=1;align=center;" vertex="1" parent="1">
          <mxGeometry x="445" y="316" width="100" height="40" as="geometry" />
        </mxCell>
        <mxCell id="6Avd4ofSIsM17FUyCCIW-51" style="edgeStyle=none;curved=1;rounded=0;orthogonalLoop=1;jettySize=auto;html=1;exitX=0.5;exitY=0;exitDx=0;exitDy=0;entryX=0.854;entryY=0.967;entryDx=0;entryDy=0;entryPerimeter=0;fontSize=12;startSize=8;endSize=8;" edge="1" parent="1" source="6Avd4ofSIsM17FUyCCIW-48" target="6Avd4ofSIsM17FUyCCIW-4">
          <mxGeometry relative="1" as="geometry" />
        </mxCell>
        <mxCell id="6Avd4ofSIsM17FUyCCIW-52" value="USER" style="rounded=0;whiteSpace=wrap;html=1;" vertex="1" parent="1">
          <mxGeometry x="-278" y="476" width="120" height="60" as="geometry" />
        </mxCell>
        <mxCell id="6Avd4ofSIsM17FUyCCIW-53" value="TRANSACTION" style="rounded=0;whiteSpace=wrap;html=1;" vertex="1" parent="1">
          <mxGeometry x="-278" y="671" width="120" height="60" as="geometry" />
        </mxCell>
        <mxCell id="6Avd4ofSIsM17FUyCCIW-54" value="ACCOUNT" style="rounded=0;whiteSpace=wrap;html=1;" vertex="1" parent="1">
          <mxGeometry x="8" y="527" width="120" height="60" as="geometry" />
        </mxCell>
        <mxCell id="6Avd4ofSIsM17FUyCCIW-55" value="AUTHENTICATION&amp;nbsp;&lt;div&gt;SERVICES&lt;/div&gt;" style="rounded=0;whiteSpace=wrap;html=1;" vertex="1" parent="1">
          <mxGeometry x="25" y="708" width="120" height="60" as="geometry" />
        </mxCell>
        <mxCell id="6Avd4ofSIsM17FUyCCIW-56" value="&lt;p style=&quot;white-space-collapse: preserve;&quot; dir=&quot;auto&quot;&gt;- userId: int&lt;/p&gt;" style="ellipse;whiteSpace=wrap;html=1;align=center;" vertex="1" parent="1">
          <mxGeometry x="-358" y="395" width="100" height="40" as="geometry" />
        </mxCell>
        <mxCell id="6Avd4ofSIsM17FUyCCIW-57" value="&lt;p style=&quot;white-space-collapse: preserve;&quot; dir=&quot;auto&quot;&gt;- username: string&lt;/p&gt;" style="ellipse;whiteSpace=wrap;html=1;align=center;" vertex="1" parent="1">
          <mxGeometry x="-211" y="395" width="100" height="40" as="geometry" />
        </mxCell>
      </root>
    </mxGraphModel>
  </diagram>
</mxfile>
